# AST/ASF file generated using VICON BodyLanguage
# -----------------------------------------------
:version 1.10
:name VICON
:units
  mass 1.0
  length 0.45
  angle deg
:documentation
   .ast/.asf automatically generated from VICON data using
   VICON BodyBuilder and BodyLanguage model FoxedUp or BRILLIANT.MOD
:root
   order TX TY TZ RX RY RZ
   axis XYZ
   position 0 0 0  
   orientation 0 0 0 
:bonedata
  begin
     id 1 
     name lhipjoint
     direction 0.523584 -0.783993 0.333487 
     length 2.44404 
     axis 0 0 0  XYZ
  end
  begin
     id 2 
     name lfemur
     direction 0.34202 -0.939693 0  
     length 7.29523  
     axis 0 0 20  XYZ
    dof rx ry rz
    limits (-160.0 20.0)
           (-70.0 70.0)
           (-60.0 70.0)
  end
  begin
     id 3 
     name ltibia
     direction 0.34215 -0.939645 0   
     length 7.81194   
     axis 0 0 20   XYZ
    dof rx
    limits (-10.0 170.0)
  end
  begin
     id 4 
     name lfoot
     direction 0.0941847 -0.25877 0.961336   
     length 2.41437   
     axis -90 7.62852e-016 20   XYZ
    dof rx rz
    limits (-45.0 90.0)
           (-70.0 20.0)
  end
  begin
     id 5 
     name ltoes
     direction 1.53526e-011 -4.21768e-011 1   
     length 1.2048   
     axis -90 7.62852e-016 20   XYZ
    dof rx
    limits (-90.0 20.0)
  end
  begin
     id 6 
     name rhipjoint
     direction -0.46599 -0.814191 0.346332   
     length 2.35339  
     axis 0 0 0  XYZ 
  end
  begin
     id 7 
     name rfemur
     direction -0.34202 -0.939693 0   
     length 7.34966   
     axis 0 0 -20   XYZ
    dof rx ry rz
    limits (-160.0 20.0)
           (-70.0 70.0)
           (-70.0 60.0)
  end
  begin
     id 8 
     name rtibia
     direction -0.34202 -0.939693 0   
     length 7.89934   
     axis 0 0 -20   XYZ
    dof rx
    limits (-10.0 170.0)
 end
 begin
     id 9 
     name rfoot
     direction -0.0975468 -0.268008 0.958466   
     length 2.27725  
     axis -90 -7.62852e-016 -20   XYZ
    dof rx rz
    limits (-45.0 90.0)
           (-20.0 70.0)
  end
  begin
     id 10 
     name rtoes
     direction -1.53563e-011 -4.22022e-011 1   
     length 1.13683   
     axis -90 -7.62852e-016 -20   XYZ
    dof rx
    limits (-90.0 20.0)
  end
  begin
     id 11 
     name lowerback
     direction -0.00456414 0.999242 -0.0386661   
     length 2.16968   
     axis 0 0 0   XYZ
    dof rx ry rz
    limits (-20.0 45.0)
           (-30.0 30.0)
           (-30.0 30.0)
  end
  begin
     id 12 
     name upperback
     direction 0.0297078 0.998988 0.0337799   
     length 2.15674   
     axis 0 0 0   XYZ
    dof rx ry rz
    limits (-20.0 45.0)
           (-30.0 30.0)
           (-30.0 30.0)
  end
  begin
     id 13 
     name thorax
     direction 0.0309305 0.998202 0.0513506   
     length 2.16319   
     axis 0 0 0   XYZ
    dof rx ry rz
    limits (-20.0 45.0)
           (-30.0 30.0)
           (-30.0 30.0)
  end
  begin
     id 14 
     name lowerneck
     direction -0.103039 0.983474 0.148872   
     length 1.64318   
     axis 0 0 0   XYZ
    dof rx ry rz
    limits (-20.0 45.0)
           (-30.0 30.0)
           (-30.0 30.0)
  end
  begin
     id 15 
     name upperneck
     direction 0.128124 0.971079 -0.201469   
     length 1.68242   
     axis 0 0 0   XYZ
    dof rx ry rz
    limits (-20.0 45.0)
           (-30.0 30.0)
           (-30.0 30.0)
  end
  begin
     id 16
     name head
     direction 0.0496365 0.994919 -0.0875941  
     length 1.70108  
     axis 0 0 0   XYZ
    dof rx ry rz
    limits (-20.0 45.0)
           (-30.0 30.0)
           (-30.0 30.0)
  end
  begin
     id 17 
     name lclavicle
     direction 0.887148 0.430222 -0.166967  
     length 3.25763  
     axis 0 0 0   XYZ
    dof ry rz
    limits (-20.0 10.0)
           (0.0 20.0)
  end
  begin
     id 18 
     name lhumerus
     direction 1 -4.48962e-011 1.92156e-027   
     length 5.10755   
     axis 180 -30 -90   XYZ
    dof rx ry rz
    limits (-60.0 90.0)
           (-90.0 90.0)
           (-90.0 90.0)
  end
  begin
     id 19
     name lradius
     direction 1 -4.48958e-011 7.10963e-027   
     length 3.36253   
     axis 180 -30 -90   XYZ
    dof rx
    limits (-10.0 170.0)
  end
  begin
     id 20
     name lwrist
     direction 1 -4.48946e-011 1.82396e-026   
     length 1.68127   
     axis -1.15222e-014 90 90   XYZ
    dof ry
    limits (-180.0 0.0)
 end
  begin
     id 21 
     name lhand
     direction 1 -4.48919e-011 3.64759e-026   
     length 0.619088   
     axis -2.32787e-014 90 90   XYZ
    dof rx rz
    limits (-90.0 90.0)
           (-45.0 45.0)
  end
  begin
     id 22 
     name lfingers
     direction 1 -4.49012e-011 7.29744e-026   
     length 0.499125   
     axis -4.6558e-014 90 90   XYZ
    dof rx
    limits (0.0 90.0)
  end
  begin
     id 23
     name lthumb
     direction 0.707107 -6.35028e-011 0.707107   
     length 0.716646   
     axis -90 45 3.78391e-014   XYZ
    dof rx rz
    limits (-45.0 45.0)
           (-45.0 45.0)
  end
  begin
     id 24 
     name rclavicle
     direction -0.82886 0.533198 -0.169384   
     length 3.20647  
     axis 0 0 0   XYZ 
    dof ry rz
    limits (-10.0 20.0)
           (-20.0 0.0)
  end
  begin
     id 25 
     name rhumerus
     direction -1 -4.48973e-011 3.06863e-027  
     length 5.27387   
     axis 180 30 90   XYZ
    dof rx ry rz
    limits (-90.0 60.0)
           (-90.0 90.0)
           (-90.0 90.0)
  end
  begin
     id 26 
     name rradius
     direction -1 -4.48988e-011 9.4797e-027   
     length 3.40144   
     axis 180 30 90   XYZ
    dof rx
    limits (-10.0 170.0)
  end
  begin
     id 27 
     name rwrist
     direction -1 -4.48897e-011 1.82366e-026   
     length 1.70072   
     axis -1.15222e-014 -90 -90   XYZ
    dof ry
    limits (-180.0 0.0)
  end
  begin
     id 28
     name rhand
     direction -1 -4.48965e-011 3.64815e-026   
     length 0.742821   
     axis -2.32787e-014 -90 -90   XYZ
    dof rx rz
    limits (-90.0 90.0)
           (-45.0 45.0)
  end
  begin
     id 29
     name rfingers
     direction -1 -4.49016e-011 7.29754e-026   
     length 0.598881   
     axis -4.6558e-014 -90 -90   XYZ
    dof rx
    limits (0.0 90.0)
  end
  begin
     id 30
     name rthumb
     direction -0.707107 -6.3488e-011 0.707107   
     length 0.859877   
     axis -90 -45 -3.78391e-014   XYZ
    dof rx rz
    limits (-45.0 45.0)
           (-45.0 45.0)
  end
:hierarchy
  begin
    root lhipjoint rhipjoint lowerback
    lhipjoint lfemur
    lfemur ltibia
    ltibia lfoot
    lfoot ltoes
    rhipjoint rfemur
    rfemur rtibia
    rtibia rfoot
    rfoot rtoes
    lowerback upperback
    upperback thorax
    thorax lowerneck lclavicle rclavicle
    lowerneck upperneck
    upperneck head
    lclavicle lhumerus
    lhumerus lradius
    lradius lwrist
    lwrist lhand lthumb
    lhand lfingers
    rclavicle rhumerus
    rhumerus rradius
    rradius rwrist
    rwrist rhand rthumb
    rhand rfingers
  end

#!OML:ASF F:\Work\Patient Classification 1\justin\Session 1\justin.ASF
:FULLY-SPECIFIED
:DEGREES
451
root 1.51172 18.4695 -5.37096 8.69306 -17.6664 5.46117
lowerback 14.4298 -6.10379 4.40713
upperback 0.619794 -6.7373 9.21779
thorax -6.78015 -3.31447 8.86701
lowerneck -13.5003 -9.87668 -15.1243
upperneck 12.8519 -11.9876 9.81472
head 7.69086 -5.70555 4.25797
rclavicle -5.08889e-014 -3.49861e-014
rhumerus 47.3177 -14.131 -66.6936
rradius 33.8456
rwrist -12.1978
rhand -32.2202 11.2924
rfingers 7.12502
rthumb -5.46138 -18.6172
lclavicle -5.08889e-014 -3.49861e-014
lhumerus 51.3272 -26.5705 85.1432
lradius 30.7874
lwrist 21.981
lhand -7.01319 35.2602
lfingers 7.12502
lthumb 18.8581 64.3661
rfemur -23.266 5.25001 8.80431
rtibia 26.5177
rfoot -9.57155 4.63884
rtoes -14.2426
lfemur -7.8493 10.1308 -30.5561
ltibia 6.98576
lfoot -6.21373 4.0788
ltoes -10.7594
452
root 1.51556 18.4775 -5.38587 9.12022 -17.7805 4.93734
lowerback 14.6434 -6.04534 4.78317
upperback 0.6128 -6.54895 9.64104
thorax -6.91966 -3.2266 9.13218
lowerneck -13.6929 -9.83066 -15.2837
upperneck 12.8653 -11.8366 9.67019
head 7.70918 -5.64733 4.24865
rclavicle -7.4743e-014 4.77083e-014
rhumerus 48.1439 -14.1747 -66.4022
rradius 33.4224
rwrist -12.5797
rhand -31.7947 11.0993
rfingers 7.12502
rthumb -5.05048 -18.8205
lclavicle -7.4743e-014 4.77083e-014
lhumerus 52.1406 -26.5929 84.6381
lradius 30.7612
lwrist 22.1938
lhand -7.00503 35.2877
lfingers 7.12502
lthumb 18.866 64.3928
rfemur -23.6727 6.14382 9.23633
rtibia 26.5021
rfoot -9.50435 3.8505
rtoes -14.4743
lfemur -8.15121 10.2797 -30.0445
ltibia 6.71901
lfoot -5.94435 4.01971
ltoes -10.4437
453
root 1.52663 18.484 -5.39323 9.38247 -17.8629 4.84091
lowerback 14.949 -6.04956 4.934
upperback 0.55594 -6.47382 9.86602
thorax -7.15055 -3.18521 9.34187
lowerneck -13.8699 -9.99668 -14.8033
upperneck 12.6622 -12.0333 9.15949
head 7.63227 -5.75254 3.97051
rclavicle 1.90833e-014 -5.40694e-014
rhumerus 49.0135 -14.3371 -66.5741
rradius 32.9067
rwrist -12.4838
rhand -31.2632 11.0721
rfingers 7.12502
rthumb -4.53731 -18.8593
lclavicle 1.90833e-014 -5.40694e-014
lhumerus 52.5184 -26.0101 85.4592
lradius 30.1394
lwrist 21.078
lhand -7.01547 35.0865
lfingers 7.12502
lthumb 18.8559 64.1925
rfemur -23.9324 6.54048 9.22142
rtibia 26.393
rfoot -9.38455 3.44561
rtoes -14.9532
lfemur -8.70532 10.3248 -30.0061
ltibia 7.12511
lfoot -6.08748 4.00946
ltoes -9.7109
454
root 1.54241 18.4869 -5.38977 9.46556 -17.8924 4.92916
lowerback 15.2573 -6.06375 5.14784
upperback 0.50355 -6.40486 9.96128
thorax -7.4005 -3.14843 9.37044
lowerneck -13.7477 -10.0438 -14.7158
upperneck 12.3942 -12.0877 8.99371
head 7.51309 -5.79022 3.90084
rclavicle 4.29375e-014 -1.27222e-014
rhumerus 49.9561 -14.8323 -67.2694
rradius 32.3061
rwrist -11.9119
rhand -31.0987 11.0481
rfingers 7.12502
rthumb -4.37841 -18.8867
lclavicle 4.29375e-014 -1.27222e-014
lhumerus 52.5247 -25.1962 87.5237
lradius 29.1648
lwrist 18.9586
lhand -6.89199 34.6107
lfingers 7.12502
lthumb 18.9747 63.7052
rfemur -24.009 6.52578 9.05637
rtibia 26.2976
rfoot -9.30152 3.40775
rtoes -15.5827
lfemur -9.03584 10.3062 -30.1727
ltibia 7.47537
lfoot -6.23472 4.00485
ltoes -9.40744
455
root 1.55444 18.4877 -5.38431 9.567 -17.8706 4.86625
lowerback 15.2409 -6.06453 5.63746
upperback 0.611999 -6.32681 10.0187
thorax -7.32938 -3.127 9.13116
lowerneck -13.4187 -10.0403 -14.9286
upperneck 11.9065 -12.1043 9.2812
head 7.33283 -5.79288 4.04181
rclavicle 2.06736e-014 5.725e-014
rhumerus 50.8875 -15.3944 -67.7477
rradius 31.7921
rwrist -11.7067
rhand -30.8066 10.7733
rfingers 7.12502
rthumb -4.09638 -19.1671
lclavicle 2.06736e-014 5.725e-014
lhumerus 53.2037 -25.1993 87.6565
lradius 28.9369
lwrist 18.5896
lhand -7.10642 34.5299
lfingers 7.12502
lthumb 18.7685 63.6444
rfemur -24.0809 6.61225 9.06353
rtibia 26.2973
rfoot -9.3221 3.27493
rtoes -15.7334
lfemur -9.08767 10.2717 -30.1504
ltibia 7.36986
lfoot -6.11682 3.97375
ltoes -9.66481
456
root 1.5663 18.4873 -5.37806 9.63406 -17.8978 5.04008
lowerback 14.9592 -6.07395 6.05852
upperback 0.808485 -6.32832 9.89508
thorax -7.01874 -3.14897 8.69126
lowerneck -14.0022 -10.1825 -15.0155
upperneck 12.2222 -12.2449 9.46893
head 7.57126 -5.83151 4.07127
rclavicle -4.45278e-014 -6.67916e-014
rhumerus 51.9356 -15.9493 -68.367
rradius 31.1052
rwrist -11.3431
rhand -30.8191 10.6193
rfingers 7.12502
rthumb -4.10841 -19.3208
lclavicle -4.45278e-014 -6.67916e-014
lhumerus 54.0321 -25.2869 87.4452
lradius 28.7305
lwrist 18.3308
lhand -7.20158 34.3498
lfingers 7.12502
lthumb 18.6769 63.4732
rfemur -24.2244 6.64476 8.8165
rtibia 26.366
rfoot -9.41951 3.17871
rtoes -16.0831
lfemur -9.11049 10.2376 -30.3833
ltibia 7.1568
lfoot -5.99476 3.95483
ltoes -9.69676
457
root 1.57921 18.4838 -5.37594 9.68901 -18.1326 5.30597
lowerback 14.8615 -6.09904 6.3459
upperback 0.9561 -6.35222 9.67035
thorax -6.85923 -3.17301 8.25164
lowerneck -14.1177 -10.1917 -14.9395
upperneck 12.095 -12.2617 9.56293
head 7.55281 -5.82447 4.08493
rclavicle 4.6118e-014 -9.54166e-014
rhumerus 53.272 -16.5304 -69.931
rradius 30.1969
rwrist -10.3696
rhand -30.9405 10.835
rfingers 7.12502
rthumb -4.22565 -19.1028
lclavicle 4.6118e-014 -9.54166e-014
lhumerus 54.7178 -25.2851 87.0473
lradius 28.5406
lwrist 17.9897
lhand -6.97407 34.2179
lfingers 7.12502
lthumb 18.8958 63.3201
rfemur -24.5075 6.75672 8.44388
rtibia 26.4708
rfoot -9.46481 3.15384
rtoes -16.734
lfemur -9.19136 10.3822 -30.7679
ltibia 6.98724
lfoot -5.94274 3.94954
ltoes -9.54962
458
root 1.59314 18.4824 -5.37919 9.83049 -18.4387 5.44654
lowerback 15.0479 -6.05687 6.42468
upperback 0.950515 -6.25512 9.70814
thorax -6.98137 -3.12487 8.25842
lowerneck -14.2616 -10.1137 -14.8733
upperneck 12.0773 -12.1064 9.33488
head 7.53185 -5.76182 4.01686
rclavicle 7.4743e-014 -2.54444e-014
rhumerus 54.4332 -16.8007 -71.0456
rradius 29.4423
rwrist -9.69744
rhand -31.0458 10.9891
rfingers 7.12502
rthumb -4.32735 -18.9467
lclavicle 7.4743e-014 -2.54444e-014
lhumerus 55.5858 -25.7102 85.4567
lradius 29.0073
lwrist 18.8894
lhand -7.4045 34.5633
lfingers 7.12502
lthumb 18.4817 63.7053
rfemur -24.9091 6.9738 8.16406
rtibia 26.5975
rfoot -9.4281 3.13501
rtoes -16.7968
lfemur -9.2983 10.6161 -31.0509
ltibia 6.69325
lfoot -5.76278 3.93305
ltoes -9.86361
459
root 1.60904 18.4837 -5.38274 9.97791 -18.6452 5.58821
lowerback 15.4277 -6.04632 6.257
upperback 0.762847 -6.18236 9.9972
thorax -7.35311 -3.07403 8.74155
lowerneck -14.3411 -9.95541 -15.1762
upperneck 12.2093 -11.7795 9.08176
head 7.55007 -5.63962 4.02251
rclavicle 5.56597e-014 -3.18055e-014
rhumerus 55.2016 -16.4846 -71.1813
rradius 28.808
rwrist -9.17045
rhand -31.4617 10.932
rfingers 7.12502
rthumb -4.72893 -18.9952
lclavicle 5.56597e-014 -3.18055e-014
lhumerus 56.0181 -25.7364 84.7509
lradius 29.3412
lwrist 19.413
lhand -8.18064 35.0466
lfingers 7.12502
lthumb 17.735 64.2578
rfemur -25.2681 7.05997 7.90161
rtibia 26.7123
rfoot -9.42079 3.18669
rtoes -16.8514
lfemur -9.3946 10.7436 -31.3111
ltibia 6.36119
lfoot -5.55255 3.89905
ltoes -10.1327
